# xmcd
#
# Track frame offsets:
#	150
#	10136
#	84202
#	109155
#	141966
#	170415
#
# Disc length: 2418 seconds
#
# Revision: 9
# Processed by: cddbd v1.5.2PL0 Copyright (c) Steve Scherf et al.
# Submitted via: Jack! The Knife 20 Magnifico
#
DISCID=41097006
DTITLE=Litfiba - Eneide di Krypton
DYEAR=1983
DGENRE=Rock
TTITLE0=La tempesta
TTITLE1=Approdo sulle coste della Libia
TTITLE2=Il Racconto di Enea
TTITLE3=L'incontro d'Amore
TTITLE4=La Battaglia
TTITLE5=Il Canto dei Latini
EXTD=Alberto Pirelli
EXTT0=Pelù, Renzulli, Aiazzi, Maroccolo, Franchi
EXTT1=Pelù, Renzulli, Aiazzi, Maroccolo, Franchi
EXTT2=Pelù, Renzulli, Aiazzi, Maroccolo, Franchi
EXTT3=Pelù, Renzulli, Aiazzi, Maroccolo, Franchi
EXTT4=Pelù, Renzulli, Aiazzi, Maroccolo, Franchi
EXTT5=Pelù, Renzulli, Aiazzi, Maroccolo, Franchi
PLAYORDER=
